<svg width="211" height="58" viewBox="0 0 211 58" fill="none" xmlns="http://www.w3.org/2000/svg">
<path fill-rule="evenodd" clip-rule="evenodd" d="M71.1782 57.2268L73.1835 14.2239L94.1067 14.183C96.5715 14.1584 99.0344 14.3294 101.472 14.6944C103.553 15.0201 105.557 15.7248 107.383 16.7733C109.187 17.8038 110.751 19.2054 111.972 20.8852C113.257 22.6834 114.211 24.6957 114.789 26.8279C115.442 29.1122 115.771 31.4768 115.765 33.8523C115.775 36.1466 115.523 38.4346 115.015 40.6721C114.562 42.7248 113.856 44.7133 112.912 46.5918C112.082 48.2472 111.021 49.7763 109.759 51.1332C108.542 52.4025 107.153 53.4948 105.631 54.3782C104.531 55.0294 103.362 55.5568 102.146 55.9508C99.6999 56.7359 96.6882 56.9379 94.1041 57.2294H71.1782V57.2268ZM84.7514 47.7809C85.8987 47.8678 87.0998 47.9113 88.3547 47.9113C90.2751 47.9309 92.1919 47.7405 94.0708 47.3436C95.7347 46.9707 97.2591 46.1357 98.468 44.9348C99.7902 43.6093 100.759 41.9741 101.285 40.1786C101.894 38.2529 102.201 36.2449 102.197 34.2256C102.197 31.7435 101.746 29.645 100.845 27.93C99.956 26.227 98.7549 25.0405 97.2593 24.3756C95.7636 23.7108 93.7405 23.3681 91.1667 23.3681C89.6659 23.3681 87.8963 23.432 85.8475 23.5625L84.754 47.7809H84.7514ZM113.055 57.2268H148.141L148.74 48.1031H127.182L127.579 40.4573H145.657L146.251 30.886H128.265L128.629 23.6903H150.036L150.313 14.229H115.258L113.058 57.2319L113.055 57.2268ZM161.432 57.2268L146.579 14.2239H160.605L173.976 57.2268H161.432Z" fill="white"/>
<path fill-rule="evenodd" clip-rule="evenodd" d="M161.435 57.2269L170.911 26.7972H183.436L173.989 57.2269H161.435ZM185.531 57.168H197.824L199.345 23.6903H210.614L211 14.229H174.768L171.833 23.6903H186.871L185.531 57.168Z" fill="white"/>
<path fill-rule="evenodd" clip-rule="evenodd" d="M28.5506 0.154653C32.412 0.150079 36.2339 0.930067 39.7838 2.44715C43.3338 3.96423 46.5374 6.18668 49.1998 8.97924H18.0685L15.382 17.6453H29.7543L27.918 48.2872H39.171L40.5642 17.6453H50.8824L51.1385 11.2372C55.5992 17.0168 57.6702 24.2843 56.9251 31.543C56.1799 38.8016 52.6753 45.4985 47.133 50.2543C41.5907 55.0101 34.4329 57.4626 27.1339 57.1066C19.8349 56.7506 12.9505 53.6133 7.89884 48.3409H17.3335L25.9819 20.4683H14.5292L6.39298 46.6353C2.98978 42.4538 0.84322 37.3949 0.202169 32.045C-0.438882 26.695 0.451829 21.2733 2.77104 16.4082C5.09025 11.5431 8.74296 7.43403 13.3057 4.5573C17.8685 1.68057 23.1544 0.154027 28.5506 0.154653Z" fill="white"/>
</svg>
