<svg width="211" height="58" viewBox="0 0 211 58" fill="none" xmlns="http://www.w3.org/2000/svg">
<path fill-rule="evenodd" clip-rule="evenodd" d="M71.1782 57.1495L73.1835 14.1466L94.1067 14.1056C96.5715 14.0811 99.0344 14.2521 101.472 14.6171C103.553 14.9428 105.557 15.6475 107.383 16.696C109.187 17.7265 110.751 19.1281 111.972 20.8078C113.257 22.6061 114.211 24.6184 114.789 26.7506C115.442 29.0349 115.771 31.3994 115.765 33.775C115.775 36.0693 115.523 38.3573 115.015 40.5948C114.562 42.6475 113.856 44.636 112.912 46.5145C112.082 48.1698 111.021 49.6989 109.759 51.0559C108.542 52.3251 107.153 53.4174 105.631 54.3009C104.531 54.9521 103.362 55.4795 102.146 55.8735C99.6999 56.6585 96.6882 56.8606 94.1041 57.1521H71.1782V57.1495ZM84.7514 47.7035C85.8987 47.7905 87.0998 47.834 88.3547 47.834C90.2751 47.8536 92.1919 47.6632 94.0708 47.2663C95.7347 46.8934 97.2591 46.0583 98.468 44.8575C99.7902 43.5319 100.759 41.8967 101.285 40.1012C101.894 38.1755 102.201 36.1676 102.197 34.1483C102.197 31.6662 101.746 29.5677 100.845 27.8527C99.956 26.1496 98.7549 24.9631 97.2593 24.2983C95.7636 23.6334 93.7405 23.2908 91.1667 23.2908C89.6659 23.2908 87.8963 23.3547 85.8475 23.4851L84.754 47.7035H84.7514ZM113.055 57.1495H148.141L148.74 48.0257H127.182L127.579 40.38H145.657L146.251 30.8087H128.265L128.629 23.613H150.036L150.313 14.1517H115.258L113.058 57.1546L113.055 57.1495ZM161.432 57.1495L146.579 14.1466H160.605L173.976 57.1495H161.432Z" fill="#0C2240"/>
<path fill-rule="evenodd" clip-rule="evenodd" d="M161.435 57.1495L170.911 26.7199H183.436L173.989 57.1495H161.435ZM185.531 57.0907H197.824L199.345 23.613H210.614L211 14.1517H174.768L171.833 23.613H186.871L185.531 57.0907Z" fill="#22A2F2"/>
<path fill-rule="evenodd" clip-rule="evenodd" d="M28.5506 0.0773363C32.412 0.0727628 36.2339 0.852751 39.7838 2.36983C43.3338 3.88691 46.5374 6.10936 49.1998 8.90193H18.0685L15.382 17.568H29.7543L27.918 48.2099H39.171L40.5642 17.568H50.8824L51.1385 11.1599C55.5992 16.9394 57.6702 24.207 56.9251 31.4657C56.1799 38.7243 52.6753 45.4212 47.133 50.177C41.5907 54.9328 34.4329 57.3853 27.1339 57.0293C19.8349 56.6733 12.9505 53.536 7.89884 48.2635H17.3335L25.9819 20.391H14.5292L6.39298 46.558C2.98978 42.3765 0.84322 37.3176 0.202169 31.9676C-0.438882 26.6177 0.451829 21.1959 2.77104 16.3309C5.09025 11.4658 8.74296 7.35671 13.3057 4.47998C17.8685 1.60325 23.1544 0.0767106 28.5506 0.0773363Z" fill="#22A2F2"/>
</svg>
