<svg width="714" height="452" viewBox="0 0 714 452" fill="none" xmlns="http://www.w3.org/2000/svg">
<g filter="url(#filter0_f_8_47)">
<ellipse cx="357.284" cy="404.548" rx="312.386" ry="3.45178" fill="black"/>
</g>
<path d="M77.6548 28C77.6548 13.0883 89.7431 1 104.655 1H611.985C626.896 1 638.985 13.0883 638.985 28V378.457C638.985 380.114 637.642 381.457 635.985 381.457H80.6548C78.998 381.457 77.6548 380.114 77.6548 378.457V28Z" fill="#1A202C" stroke="#4A5568" stroke-width="2"/>
<path d="M80.1066 25.4517C80.1066 13.3014 89.9563 3.45166 102.107 3.45166H614.533C626.683 3.45166 636.533 13.3014 636.533 25.4517V367.959H80.1066V25.4517Z" fill="black"/>
<rect x="91.1523" y="21.4009" width="531.574" height="331.371" fill="white"/>
<path d="M297.67 182.038V199.492H293.98V182.038H297.67ZM304.269 191.924V199.492H300.638V186.401H304.098V188.711H304.252C304.541 187.95 305.027 187.347 305.709 186.904C306.391 186.455 307.217 186.231 308.189 186.231C309.098 186.231 309.891 186.43 310.567 186.827C311.243 187.225 311.769 187.793 312.144 188.532C312.519 189.265 312.706 190.14 312.706 191.157V199.492H309.075V191.805C309.081 191.004 308.877 190.379 308.462 189.93C308.047 189.475 307.476 189.248 306.749 189.248C306.26 189.248 305.828 189.353 305.453 189.563C305.084 189.773 304.794 190.08 304.584 190.484C304.379 190.881 304.274 191.362 304.269 191.924ZM326.46 190.134L323.136 190.339C323.079 190.055 322.957 189.799 322.769 189.572C322.582 189.339 322.335 189.154 322.028 189.018C321.727 188.876 321.366 188.805 320.945 188.805C320.383 188.805 319.909 188.924 319.522 189.163C319.136 189.396 318.943 189.708 318.943 190.1C318.943 190.413 319.068 190.677 319.318 190.893C319.568 191.109 319.997 191.282 320.605 191.413L322.974 191.89C324.247 192.151 325.195 192.572 325.82 193.151C326.445 193.731 326.758 194.492 326.758 195.435C326.758 196.293 326.505 197.046 325.999 197.694C325.499 198.342 324.812 198.847 323.937 199.211C323.068 199.569 322.065 199.748 320.928 199.748C319.195 199.748 317.815 199.387 316.786 198.665C315.764 197.938 315.164 196.95 314.988 195.7L318.559 195.512C318.667 196.04 318.928 196.444 319.343 196.722C319.758 196.995 320.289 197.131 320.937 197.131C321.573 197.131 322.085 197.009 322.471 196.765C322.863 196.515 323.062 196.194 323.068 195.802C323.062 195.472 322.923 195.202 322.65 194.992C322.377 194.776 321.957 194.612 321.389 194.498L319.122 194.046C317.843 193.79 316.891 193.347 316.266 192.717C315.647 192.086 315.338 191.282 315.338 190.305C315.338 189.464 315.565 188.739 316.019 188.131C316.48 187.523 317.124 187.055 317.954 186.725C318.789 186.396 319.766 186.231 320.886 186.231C322.539 186.231 323.84 186.58 324.789 187.279C325.744 187.978 326.301 188.93 326.46 190.134ZM335.01 199.748C333.663 199.748 332.504 199.475 331.533 198.93C330.567 198.379 329.823 197.6 329.3 196.594C328.777 195.583 328.516 194.387 328.516 193.006C328.516 191.66 328.777 190.478 329.3 189.461C329.823 188.444 330.558 187.651 331.507 187.083C332.462 186.515 333.581 186.231 334.865 186.231C335.729 186.231 336.533 186.37 337.277 186.648C338.027 186.921 338.681 187.333 339.237 187.884C339.8 188.435 340.237 189.129 340.55 189.964C340.862 190.793 341.019 191.765 341.019 192.879V193.876H329.965V191.626H337.601C337.601 191.103 337.487 190.64 337.26 190.237C337.033 189.833 336.717 189.518 336.314 189.29C335.916 189.058 335.453 188.941 334.925 188.941C334.374 188.941 333.885 189.069 333.459 189.325C333.038 189.575 332.709 189.913 332.47 190.339C332.232 190.759 332.11 191.228 332.104 191.745V193.884C332.104 194.532 332.223 195.092 332.462 195.563C332.706 196.035 333.05 196.398 333.493 196.654C333.936 196.91 334.462 197.038 335.07 197.038C335.473 197.038 335.842 196.981 336.178 196.867C336.513 196.754 336.8 196.583 337.038 196.356C337.277 196.129 337.459 195.85 337.584 195.521L340.942 195.742C340.771 196.549 340.422 197.254 339.894 197.856C339.371 198.452 338.695 198.918 337.865 199.254C337.041 199.583 336.09 199.748 335.01 199.748ZM343.388 199.492V186.401H346.908V188.685H347.044C347.283 187.873 347.683 187.259 348.246 186.844C348.808 186.424 349.456 186.214 350.189 186.214C350.371 186.214 350.567 186.225 350.777 186.248C350.987 186.271 351.172 186.302 351.331 186.342V189.563C351.161 189.512 350.925 189.467 350.624 189.427C350.323 189.387 350.047 189.367 349.797 189.367C349.263 189.367 348.786 189.484 348.365 189.717C347.95 189.944 347.621 190.262 347.377 190.671C347.138 191.08 347.019 191.552 347.019 192.086V199.492H343.388ZM360.828 186.401V189.129H352.944V186.401H360.828ZM354.734 183.265H358.364V195.469C358.364 195.805 358.416 196.066 358.518 196.254C358.62 196.435 358.762 196.563 358.944 196.637C359.132 196.711 359.347 196.748 359.592 196.748C359.762 196.748 359.933 196.734 360.103 196.705C360.274 196.671 360.404 196.646 360.495 196.629L361.066 199.33C360.884 199.387 360.629 199.452 360.299 199.526C359.97 199.606 359.569 199.654 359.097 199.671C358.222 199.705 357.455 199.589 356.796 199.322C356.143 199.055 355.634 198.64 355.271 198.077C354.907 197.515 354.728 196.805 354.734 195.947V183.265ZM367.793 182.038H371.926L375.906 189.555H376.077L380.057 182.038H384.19L377.824 193.322V199.492H374.159V193.322L367.793 182.038ZM389.311 199.748C387.987 199.748 386.842 199.467 385.876 198.904C384.916 198.336 384.174 197.546 383.651 196.535C383.129 195.518 382.867 194.339 382.867 192.998C382.867 191.646 383.129 190.464 383.651 189.452C384.174 188.435 384.916 187.646 385.876 187.083C386.842 186.515 387.987 186.231 389.311 186.231C390.634 186.231 391.776 186.515 392.737 187.083C393.703 187.646 394.447 188.435 394.97 189.452C395.492 190.464 395.754 191.646 395.754 192.998C395.754 194.339 395.492 195.518 394.97 196.535C394.447 197.546 393.703 198.336 392.737 198.904C391.776 199.467 390.634 199.748 389.311 199.748ZM389.328 196.935C389.93 196.935 390.433 196.765 390.836 196.424C391.239 196.077 391.543 195.606 391.748 195.009C391.958 194.413 392.063 193.734 392.063 192.972C392.063 192.211 391.958 191.532 391.748 190.935C391.543 190.339 391.239 189.867 390.836 189.521C390.433 189.174 389.93 189.001 389.328 189.001C388.72 189.001 388.208 189.174 387.793 189.521C387.384 189.867 387.075 190.339 386.864 190.935C386.66 191.532 386.558 192.211 386.558 192.972C386.558 193.734 386.66 194.413 386.864 195.009C387.075 195.606 387.384 196.077 387.793 196.424C388.208 196.765 388.72 196.935 389.328 196.935ZM406.509 193.918V186.401H410.14V199.492H406.654V197.114H406.518C406.222 197.881 405.731 198.498 405.043 198.964C404.362 199.43 403.529 199.663 402.546 199.663C401.671 199.663 400.901 199.464 400.237 199.066C399.572 198.668 399.052 198.103 398.677 197.37C398.308 196.637 398.12 195.759 398.114 194.737V186.401H401.745V194.089C401.751 194.862 401.958 195.472 402.367 195.921C402.776 196.37 403.325 196.594 404.012 196.594C404.45 196.594 404.859 196.495 405.239 196.296C405.62 196.092 405.927 195.79 406.16 195.393C406.399 194.995 406.515 194.504 406.509 193.918ZM413.044 199.492V186.401H416.564V188.685H416.7C416.939 187.873 417.34 187.259 417.902 186.844C418.465 186.424 419.112 186.214 419.845 186.214C420.027 186.214 420.223 186.225 420.433 186.248C420.644 186.271 420.828 186.302 420.987 186.342V189.563C420.817 189.512 420.581 189.467 420.28 189.427C419.979 189.387 419.703 189.367 419.453 189.367C418.919 189.367 418.442 189.484 418.021 189.717C417.607 189.944 417.277 190.262 417.033 190.671C416.794 191.08 416.675 191.552 416.675 192.086V199.492H413.044ZM292.995 221.492H286.808V204.038H293.046C294.802 204.038 296.313 204.387 297.58 205.086C298.847 205.779 299.822 206.776 300.504 208.077C301.191 209.379 301.535 210.935 301.535 212.748C301.535 214.566 301.191 216.129 300.504 217.435C299.822 218.742 298.842 219.745 297.563 220.444C296.291 221.143 294.768 221.492 292.995 221.492ZM290.498 218.33H292.842C293.933 218.33 294.85 218.137 295.595 217.751C296.345 217.359 296.907 216.754 297.282 215.935C297.663 215.112 297.853 214.049 297.853 212.748C297.853 211.458 297.663 210.404 297.282 209.586C296.907 208.768 296.347 208.165 295.603 207.779C294.859 207.393 293.941 207.2 292.85 207.2H290.498V218.33ZM310.166 221.748C308.82 221.748 307.661 221.475 306.689 220.93C305.723 220.379 304.979 219.6 304.456 218.594C303.933 217.583 303.672 216.387 303.672 215.006C303.672 213.66 303.933 212.478 304.456 211.461C304.979 210.444 305.715 209.651 306.663 209.083C307.618 208.515 308.737 208.231 310.021 208.231C310.885 208.231 311.689 208.37 312.433 208.648C313.183 208.921 313.837 209.333 314.394 209.884C314.956 210.435 315.394 211.129 315.706 211.964C316.019 212.793 316.175 213.765 316.175 214.879V215.876H305.121V213.626H312.757C312.757 213.103 312.644 212.64 312.416 212.237C312.189 211.833 311.874 211.518 311.47 211.29C311.073 211.058 310.61 210.941 310.081 210.941C309.53 210.941 309.041 211.069 308.615 211.325C308.195 211.575 307.865 211.913 307.627 212.339C307.388 212.759 307.266 213.228 307.26 213.745V215.884C307.26 216.532 307.379 217.092 307.618 217.563C307.862 218.035 308.206 218.398 308.649 218.654C309.092 218.91 309.618 219.038 310.226 219.038C310.629 219.038 310.999 218.981 311.334 218.867C311.669 218.754 311.956 218.583 312.195 218.356C312.433 218.129 312.615 217.85 312.74 217.521L316.098 217.742C315.928 218.549 315.578 219.254 315.05 219.856C314.527 220.452 313.851 220.918 313.021 221.254C312.198 221.583 311.246 221.748 310.166 221.748ZM329.436 212.134L326.112 212.339C326.056 212.055 325.933 211.799 325.746 211.572C325.558 211.339 325.311 211.154 325.004 211.018C324.703 210.876 324.342 210.805 323.922 210.805C323.36 210.805 322.885 210.924 322.499 211.163C322.112 211.396 321.919 211.708 321.919 212.1C321.919 212.413 322.044 212.677 322.294 212.893C322.544 213.109 322.973 213.282 323.581 213.413L325.95 213.89C327.223 214.151 328.172 214.572 328.797 215.151C329.422 215.731 329.735 216.492 329.735 217.435C329.735 218.293 329.482 219.046 328.976 219.694C328.476 220.342 327.788 220.847 326.913 221.211C326.044 221.569 325.041 221.748 323.905 221.748C322.172 221.748 320.791 221.387 319.763 220.665C318.74 219.938 318.141 218.95 317.965 217.7L321.536 217.512C321.644 218.04 321.905 218.444 322.32 218.722C322.735 218.995 323.266 219.131 323.913 219.131C324.55 219.131 325.061 219.009 325.448 218.765C325.84 218.515 326.038 218.194 326.044 217.802C326.038 217.472 325.899 217.202 325.627 216.992C325.354 216.776 324.933 216.612 324.365 216.498L322.098 216.046C320.82 215.79 319.868 215.347 319.243 214.717C318.624 214.086 318.314 213.282 318.314 212.305C318.314 211.464 318.541 210.739 318.996 210.131C319.456 209.523 320.101 209.055 320.931 208.725C321.766 208.396 322.743 208.231 323.862 208.231C325.516 208.231 326.817 208.58 327.766 209.279C328.72 209.978 329.277 210.93 329.436 212.134ZM332.021 221.492V208.401H335.651V221.492H332.021ZM333.845 206.714C333.305 206.714 332.842 206.535 332.455 206.177C332.075 205.813 331.884 205.379 331.884 204.873C331.884 204.373 332.075 203.944 332.455 203.586C332.842 203.222 333.305 203.04 333.845 203.04C334.384 203.04 334.845 203.222 335.225 203.586C335.612 203.944 335.805 204.373 335.805 204.873C335.805 205.379 335.612 205.813 335.225 206.177C334.845 206.535 334.384 206.714 333.845 206.714ZM344.458 226.674C343.281 226.674 342.273 226.512 341.432 226.188C340.597 225.87 339.932 225.435 339.438 224.884C338.943 224.333 338.622 223.714 338.475 223.026L341.833 222.575C341.935 222.836 342.097 223.08 342.318 223.308C342.54 223.535 342.833 223.717 343.196 223.853C343.565 223.995 344.014 224.066 344.543 224.066C345.333 224.066 345.983 223.873 346.494 223.487C347.012 223.106 347.27 222.467 347.27 221.569V219.174H347.117C346.958 219.538 346.719 219.881 346.401 220.205C346.083 220.529 345.673 220.793 345.173 220.998C344.673 221.202 344.077 221.305 343.384 221.305C342.401 221.305 341.506 221.077 340.699 220.623C339.898 220.163 339.259 219.461 338.781 218.518C338.31 217.569 338.074 216.37 338.074 214.921C338.074 213.438 338.315 212.2 338.798 211.205C339.281 210.211 339.923 209.467 340.725 208.972C341.531 208.478 342.415 208.231 343.375 208.231C344.108 208.231 344.722 208.356 345.216 208.606C345.71 208.85 346.108 209.157 346.409 209.526C346.716 209.89 346.952 210.248 347.117 210.6H347.253V208.401H350.858V221.62C350.858 222.734 350.585 223.665 350.04 224.415C349.494 225.165 348.739 225.728 347.773 226.103C346.813 226.484 345.708 226.674 344.458 226.674ZM344.534 218.577C345.119 218.577 345.614 218.433 346.017 218.143C346.426 217.847 346.739 217.427 346.955 216.881C347.176 216.33 347.287 215.671 347.287 214.904C347.287 214.137 347.179 213.472 346.963 212.91C346.747 212.342 346.435 211.901 346.026 211.589C345.617 211.276 345.119 211.12 344.534 211.12C343.938 211.12 343.435 211.282 343.026 211.606C342.617 211.924 342.307 212.367 342.097 212.935C341.887 213.504 341.781 214.16 341.781 214.904C341.781 215.66 341.887 216.313 342.097 216.864C342.313 217.41 342.622 217.833 343.026 218.134C343.435 218.43 343.938 218.577 344.534 218.577ZM357.378 213.924V221.492H353.747V208.401H357.208V210.711H357.361C357.651 209.95 358.137 209.347 358.818 208.904C359.5 208.455 360.327 208.231 361.298 208.231C362.208 208.231 363 208.43 363.676 208.827C364.352 209.225 364.878 209.793 365.253 210.532C365.628 211.265 365.815 212.14 365.815 213.157V221.492H362.185V213.805C362.19 213.004 361.986 212.379 361.571 211.93C361.156 211.475 360.585 211.248 359.858 211.248C359.369 211.248 358.938 211.353 358.563 211.563C358.193 211.773 357.904 212.08 357.693 212.484C357.489 212.881 357.384 213.362 357.378 213.924ZM374.3 221.492V204.038H377.99V211.239H385.482V204.038H389.163V221.492H385.482V214.282H377.99V221.492H374.3ZM398.104 221.748C396.757 221.748 395.598 221.475 394.627 220.93C393.661 220.379 392.916 219.6 392.394 218.594C391.871 217.583 391.61 216.387 391.61 215.006C391.61 213.66 391.871 212.478 392.394 211.461C392.916 210.444 393.652 209.651 394.601 209.083C395.556 208.515 396.675 208.231 397.959 208.231C398.823 208.231 399.627 208.37 400.371 208.648C401.121 208.921 401.774 209.333 402.331 209.884C402.894 210.435 403.331 211.129 403.644 211.964C403.956 212.793 404.112 213.765 404.112 214.879V215.876H393.058V213.626H400.695C400.695 213.103 400.581 212.64 400.354 212.237C400.127 211.833 399.811 211.518 399.408 211.29C399.01 211.058 398.547 210.941 398.019 210.941C397.467 210.941 396.979 211.069 396.553 211.325C396.132 211.575 395.803 211.913 395.564 212.339C395.325 212.759 395.203 213.228 395.198 213.745V215.884C395.198 216.532 395.317 217.092 395.556 217.563C395.8 218.035 396.144 218.398 396.587 218.654C397.03 218.91 397.556 219.038 398.163 219.038C398.567 219.038 398.936 218.981 399.271 218.867C399.607 218.754 399.894 218.583 400.132 218.356C400.371 218.129 400.553 217.85 400.678 217.521L404.036 217.742C403.865 218.549 403.516 219.254 402.987 219.856C402.465 220.452 401.788 220.918 400.959 221.254C400.135 221.583 399.183 221.748 398.104 221.748ZM406.482 221.492V208.401H410.002V210.685H410.138C410.377 209.873 410.777 209.259 411.34 208.844C411.902 208.424 412.55 208.214 413.283 208.214C413.465 208.214 413.661 208.225 413.871 208.248C414.081 208.271 414.266 208.302 414.425 208.342V211.563C414.254 211.512 414.019 211.467 413.717 211.427C413.416 211.387 413.141 211.367 412.891 211.367C412.357 211.367 411.879 211.484 411.459 211.717C411.044 211.944 410.715 212.262 410.47 212.671C410.232 213.08 410.112 213.552 410.112 214.086V221.492H406.482ZM421.659 221.748C420.312 221.748 419.153 221.475 418.181 220.93C417.215 220.379 416.471 219.6 415.948 218.594C415.426 217.583 415.164 216.387 415.164 215.006C415.164 213.66 415.426 212.478 415.948 211.461C416.471 210.444 417.207 209.651 418.156 209.083C419.11 208.515 420.23 208.231 421.514 208.231C422.377 208.231 423.181 208.37 423.926 208.648C424.676 208.921 425.329 209.333 425.886 209.884C426.448 210.435 426.886 211.129 427.198 211.964C427.511 212.793 427.667 213.765 427.667 214.879V215.876H416.613V213.626H424.249C424.249 213.103 424.136 212.64 423.909 212.237C423.681 211.833 423.366 211.518 422.962 211.29C422.565 211.058 422.102 210.941 421.573 210.941C421.022 210.941 420.534 211.069 420.107 211.325C419.687 211.575 419.357 211.913 419.119 212.339C418.88 212.759 418.758 213.228 418.752 213.745V215.884C418.752 216.532 418.872 217.092 419.11 217.563C419.355 218.035 419.698 218.398 420.141 218.654C420.585 218.91 421.11 219.038 421.718 219.038C422.122 219.038 422.491 218.981 422.826 218.867C423.161 218.754 423.448 218.583 423.687 218.356C423.926 218.129 424.107 217.85 424.232 217.521L427.59 217.742C427.42 218.549 427.07 219.254 426.542 219.856C426.019 220.452 425.343 220.918 424.514 221.254C423.69 221.583 422.738 221.748 421.659 221.748Z" fill="#2D3748"/>
<path d="M340.748 370.195H342.844L345.651 377.046H345.762L348.568 370.195H350.664V379.65H349.021V373.155H348.933L346.32 379.622H345.092L342.479 373.141H342.392V379.65H340.748V370.195ZM354.496 379.793C354.047 379.793 353.642 379.713 353.282 379.553C352.925 379.39 352.642 379.15 352.432 378.833C352.226 378.516 352.123 378.125 352.123 377.66C352.123 377.26 352.197 376.929 352.345 376.668C352.492 376.406 352.694 376.197 352.949 376.04C353.205 375.883 353.493 375.764 353.813 375.684C354.136 375.601 354.47 375.541 354.814 375.504C355.23 375.461 355.567 375.423 355.825 375.389C356.084 375.352 356.272 375.297 356.389 375.223C356.509 375.146 356.569 375.027 356.569 374.867V374.84C356.569 374.492 356.466 374.222 356.259 374.032C356.053 373.841 355.756 373.745 355.368 373.745C354.959 373.745 354.634 373.835 354.394 374.013C354.157 374.192 353.997 374.403 353.914 374.646L352.354 374.424C352.477 373.993 352.68 373.633 352.963 373.344C353.246 373.051 353.593 372.833 354.002 372.688C354.411 372.541 354.864 372.467 355.359 372.467C355.701 372.467 356.041 372.507 356.379 372.587C356.718 372.667 357.027 372.799 357.307 372.984C357.587 373.165 357.812 373.413 357.981 373.727C358.154 374.041 358.24 374.433 358.24 374.904V379.65H356.633V378.676H356.578C356.476 378.873 356.333 379.057 356.149 379.23C355.967 379.399 355.738 379.536 355.461 379.641C355.187 379.742 354.865 379.793 354.496 379.793ZM354.93 378.565C355.265 378.565 355.556 378.499 355.802 378.367C356.049 378.231 356.238 378.053 356.37 377.831C356.506 377.609 356.573 377.368 356.573 377.106V376.271C356.521 376.314 356.432 376.354 356.306 376.391C356.182 376.428 356.044 376.46 355.89 376.488C355.736 376.515 355.584 376.54 355.433 376.561C355.282 376.583 355.151 376.601 355.041 376.617C354.791 376.651 354.568 376.706 354.371 376.783C354.174 376.86 354.019 376.968 353.905 377.106C353.791 377.242 353.734 377.417 353.734 377.633C353.734 377.94 353.847 378.173 354.071 378.33C354.296 378.487 354.582 378.565 354.93 378.565ZM363.013 379.788C362.305 379.788 361.698 379.633 361.19 379.322C360.685 379.011 360.296 378.582 360.022 378.034C359.751 377.483 359.616 376.849 359.616 376.132C359.616 375.412 359.754 374.776 360.031 374.226C360.308 373.672 360.699 373.241 361.204 372.933C361.711 372.622 362.312 372.467 363.004 372.467C363.58 372.467 364.089 372.573 364.532 372.785C364.978 372.994 365.334 373.291 365.599 373.676C365.863 374.058 366.014 374.504 366.051 375.015H364.454C364.389 374.673 364.235 374.389 363.992 374.161C363.752 373.93 363.43 373.815 363.027 373.815C362.686 373.815 362.385 373.907 362.127 374.092C361.868 374.273 361.667 374.535 361.522 374.876C361.381 375.218 361.31 375.627 361.31 376.104C361.31 376.588 361.381 377.003 361.522 377.351C361.664 377.696 361.862 377.962 362.118 378.15C362.376 378.334 362.679 378.427 363.027 378.427C363.273 378.427 363.493 378.38 363.687 378.288C363.884 378.193 364.049 378.056 364.181 377.877C364.314 377.699 364.404 377.482 364.454 377.226H366.051C366.011 377.728 365.863 378.173 365.608 378.56C365.352 378.945 365.005 379.247 364.564 379.465C364.124 379.681 363.607 379.788 363.013 379.788ZM367.497 379.65V370.195H369.168V373.732H369.237C369.324 373.559 369.445 373.376 369.602 373.182C369.759 372.985 369.972 372.818 370.239 372.679C370.507 372.537 370.849 372.467 371.264 372.467C371.812 372.467 372.306 372.607 372.746 372.887C373.189 373.164 373.54 373.575 373.799 374.119C374.06 374.661 374.191 375.326 374.191 376.114C374.191 376.892 374.063 377.554 373.808 378.099C373.552 378.644 373.205 379.059 372.764 379.345C372.324 379.631 371.826 379.775 371.269 379.775C370.862 379.775 370.525 379.707 370.258 379.571C369.99 379.436 369.775 379.273 369.611 379.082C369.451 378.888 369.327 378.705 369.237 378.533H369.141V379.65H367.497ZM369.136 376.104C369.136 376.563 369.201 376.965 369.33 377.309C369.462 377.654 369.651 377.923 369.898 378.117C370.147 378.308 370.449 378.403 370.802 378.403C371.172 378.403 371.481 378.305 371.73 378.108C371.98 377.908 372.167 377.636 372.294 377.291C372.423 376.943 372.487 376.548 372.487 376.104C372.487 375.664 372.424 375.273 372.298 374.932C372.172 374.59 371.984 374.322 371.735 374.129C371.486 373.935 371.175 373.838 370.802 373.838C370.445 373.838 370.142 373.932 369.893 374.119C369.644 374.307 369.454 374.57 369.325 374.909C369.199 375.247 369.136 375.646 369.136 376.104ZM337.445 391.788C336.752 391.788 336.152 391.636 335.645 391.331C335.137 391.027 334.743 390.6 334.463 390.053C334.186 389.505 334.047 388.865 334.047 388.132C334.047 387.4 334.186 386.758 334.463 386.207C334.743 385.656 335.137 385.228 335.645 384.924C336.152 384.619 336.752 384.467 337.445 384.467C338.137 384.467 338.738 384.619 339.245 384.924C339.753 385.228 340.146 385.656 340.423 386.207C340.703 386.758 340.843 387.4 340.843 388.132C340.843 388.865 340.703 389.505 340.423 390.053C340.146 390.6 339.753 391.027 339.245 391.331C338.738 391.636 338.137 391.788 337.445 391.788ZM337.454 390.45C337.83 390.45 338.144 390.347 338.396 390.14C338.648 389.931 338.836 389.651 338.959 389.3C339.085 388.949 339.148 388.558 339.148 388.128C339.148 387.694 339.085 387.301 338.959 386.95C338.836 386.596 338.648 386.315 338.396 386.106C338.144 385.896 337.83 385.792 337.454 385.792C337.069 385.792 336.749 385.896 336.494 386.106C336.242 386.315 336.052 386.596 335.926 386.95C335.803 387.301 335.741 387.694 335.741 388.128C335.741 388.558 335.803 388.949 335.926 389.3C336.052 389.651 336.242 389.931 336.494 390.14C336.749 390.347 337.069 390.45 337.454 390.45ZM345.354 391.788C344.662 391.788 344.062 391.636 343.554 391.331C343.046 391.027 342.652 390.6 342.372 390.053C342.095 389.505 341.956 388.865 341.956 388.132C341.956 387.4 342.095 386.758 342.372 386.207C342.652 385.656 343.046 385.228 343.554 384.924C344.062 384.619 344.662 384.467 345.354 384.467C346.047 384.467 346.647 384.619 347.155 384.924C347.662 385.228 348.055 385.656 348.332 386.207C348.612 386.758 348.752 387.4 348.752 388.132C348.752 388.865 348.612 389.505 348.332 390.053C348.055 390.6 347.662 391.027 347.155 391.331C346.647 391.636 346.047 391.788 345.354 391.788ZM345.363 390.45C345.739 390.45 346.053 390.347 346.305 390.14C346.557 389.931 346.745 389.651 346.868 389.3C346.995 388.949 347.058 388.558 347.058 388.128C347.058 387.694 346.995 387.301 346.868 386.95C346.745 386.596 346.557 386.315 346.305 386.106C346.053 385.896 345.739 385.792 345.363 385.792C344.979 385.792 344.659 385.896 344.403 386.106C344.151 386.315 343.961 386.596 343.835 386.95C343.712 387.301 343.651 387.694 343.651 388.128C343.651 388.558 343.712 388.949 343.835 389.3C343.961 389.651 344.151 389.931 344.403 390.14C344.659 390.347 344.979 390.45 345.363 390.45ZM351.694 389.425L351.689 387.407H351.957L354.505 384.559H356.458L353.323 388.049H352.977L351.694 389.425ZM350.17 391.65V382.195H351.841V391.65H350.17ZM354.621 391.65L352.312 388.423L353.439 387.246L356.619 391.65H354.621ZM360.87 391.65V382.195H364.416C365.142 382.195 365.751 382.331 366.244 382.602C366.739 382.872 367.113 383.245 367.366 383.719C367.621 384.19 367.749 384.725 367.749 385.325C367.749 385.932 367.621 386.47 367.366 386.941C367.11 387.412 366.733 387.783 366.234 388.054C365.736 388.321 365.122 388.455 364.392 388.455H362.043V387.047H364.162C364.586 387.047 364.934 386.973 365.205 386.826C365.476 386.678 365.676 386.475 365.805 386.216C365.937 385.958 366.004 385.661 366.004 385.325C366.004 384.99 365.937 384.694 365.805 384.439C365.676 384.184 365.474 383.985 365.2 383.843C364.93 383.699 364.58 383.626 364.152 383.626H362.583V391.65H360.87ZM369.162 391.65V384.559H370.783V385.741H370.857C370.986 385.331 371.208 385.016 371.521 384.794C371.838 384.57 372.2 384.457 372.606 384.457C372.699 384.457 372.802 384.462 372.916 384.471C373.033 384.477 373.13 384.488 373.206 384.504V386.041C373.136 386.016 373.023 385.995 372.869 385.976C372.719 385.955 372.573 385.944 372.431 385.944C372.126 385.944 371.852 386.01 371.609 386.142C371.369 386.272 371.18 386.452 371.041 386.683C370.903 386.913 370.834 387.18 370.834 387.481V391.65H369.162ZM377.118 391.788C376.425 391.788 375.825 391.636 375.317 391.331C374.81 391.027 374.416 390.6 374.136 390.053C373.859 389.505 373.72 388.865 373.72 388.132C373.72 387.4 373.859 386.758 374.136 386.207C374.416 385.656 374.81 385.228 375.317 384.924C375.825 384.619 376.425 384.467 377.118 384.467C377.81 384.467 378.41 384.619 378.918 384.924C379.426 385.228 379.818 385.656 380.095 386.207C380.376 386.758 380.516 387.4 380.516 388.132C380.516 388.865 380.376 389.505 380.095 390.053C379.818 390.6 379.426 391.027 378.918 391.331C378.41 391.636 377.81 391.788 377.118 391.788ZM377.127 390.45C377.503 390.45 377.816 390.347 378.069 390.14C378.321 389.931 378.509 389.651 378.632 389.3C378.758 388.949 378.821 388.558 378.821 388.128C378.821 387.694 378.758 387.301 378.632 386.95C378.509 386.596 378.321 386.315 378.069 386.106C377.816 385.896 377.503 385.792 377.127 385.792C376.742 385.792 376.422 385.896 376.167 386.106C375.914 386.315 375.725 386.596 375.599 386.95C375.476 387.301 375.414 387.694 375.414 388.128C375.414 388.558 375.476 388.949 375.599 389.3C375.725 389.651 375.914 389.931 376.167 390.14C376.422 390.347 376.742 390.45 377.127 390.45Z" fill="#A0AEC0"/>
<path d="M9 381.695C9 380.591 9.89543 379.695 11 379.695H702.878C703.983 379.695 704.878 380.591 704.878 381.695V392.122H9V381.695Z" fill="#A3ACB1"/>
<path d="M9 381.695C9 380.591 9.89543 379.695 11 379.695H702.878C703.983 379.695 704.878 380.591 704.878 381.695V392.122H9V381.695Z" fill="url(#paint0_linear_8_47)"/>
<path d="M9 392.122H704.878L702.948 392.511C676.915 397.762 650.425 400.406 623.868 400.406H84.4678C59.0849 400.406 33.7784 397.628 9 392.122Z" fill="#647279"/>
<path d="M9 392.122H704.878L702.948 392.511C676.915 397.762 650.425 400.406 623.868 400.406H84.4678C59.0849 400.406 33.7784 397.628 9 392.122Z" fill="url(#paint1_linear_8_47)"/>
<path fill-rule="evenodd" clip-rule="evenodd" d="M299.662 379.695C300.017 385.093 304.508 389.36 309.995 389.36H404.574C410.061 389.36 414.551 385.093 414.906 379.695H299.662Z" fill="#96A1A8"/>
<path fill-rule="evenodd" clip-rule="evenodd" d="M299.662 379.695C300.017 385.093 304.508 389.36 309.995 389.36H404.574C410.061 389.36 414.551 385.093 414.906 379.695H299.662Z" fill="url(#paint2_linear_8_47)"/>
<defs>
<filter id="filter0_f_8_47" x="0.898476" y="357.097" width="712.772" height="94.9033" filterUnits="userSpaceOnUse" color-interpolation-filters="sRGB">
<feFlood flood-opacity="0" result="BackgroundImageFix"/>
<feBlend mode="normal" in="SourceGraphic" in2="BackgroundImageFix" result="shape"/>
<feGaussianBlur stdDeviation="22" result="effect1_foregroundBlur_8_47"/>
</filter>
<linearGradient id="paint0_linear_8_47" x1="9" y1="385.909" x2="704.878" y2="385.909" gradientUnits="userSpaceOnUse">
<stop stop-color="#0D1012"/>
<stop offset="0.0295345" stop-color="#CAD4DB"/>
<stop offset="0.0625" stop-color="#242729"/>
<stop offset="0.133609" stop-color="#A3ACB1"/>
<stop offset="0.865967" stop-color="#A3ACB1"/>
<stop offset="0.941937" stop-color="#242729"/>
<stop offset="0.971275" stop-color="#CAD4DB"/>
<stop offset="0.996436" stop-color="#0D1012"/>
</linearGradient>
<linearGradient id="paint1_linear_8_47" x1="356.939" y1="392.122" x2="356.939" y2="400.406" gradientUnits="userSpaceOnUse">
<stop stop-color="#7A7F83"/>
<stop offset="1" stop-color="#0B0B0E"/>
</linearGradient>
<linearGradient id="paint2_linear_8_47" x1="311.03" y1="385.563" x2="405.609" y2="385.563" gradientUnits="userSpaceOnUse">
<stop stop-color="#3C3C3C"/>
<stop offset="0.317518" stop-color="#3C3C3C" stop-opacity="0"/>
<stop offset="0.660584" stop-color="#3C3C3C" stop-opacity="0"/>
<stop offset="1" stop-color="#444444"/>
</linearGradient>
</defs>
</svg>
